<?xml version="1.0" standalone="no"?>
<svg viewBox="0 0 200 200" xmlns="http://www.w3.org/2000/svg">
  <path fill="#4CB4D9" d="M27.3,-31.6C41.3,-33.5,62.6,-35.9,71.5,-29C80.4,-22,76.8,-5.7,73.6,10C70.4,25.7,67.4,40.8,56.2,42.5C45.1,44.2,25.6,32.6,10.6,37.7C-4.4,42.9,-14.9,64.8,-26.6,70.6C-38.3,76.3,-51.2,65.9,-49.8,51.9C-48.4,37.8,-32.7,20.1,-31.4,6.6C-30.1,-6.9,-43.1,-16.3,-45.6,-24.9C-48,-33.6,-40,-41.6,-30.6,-41.9C-21.3,-42.2,-10.6,-34.7,-2,-31.6C6.7,-28.6,13.3,-29.8,27.3,-31.6Z" transform="translate(100 100)" />
</svg>
