<?xml version="1.0" standalone="no"?>
<svg viewBox="0 0 200 200" xmlns="http://www.w3.org/2000/svg">
  <path fill="#60F0B7" d="M37.8,-66.9C49.8,-58.6,60.9,-50.1,68.7,-38.9C76.5,-27.7,81,-13.8,79,-1.1C77,11.5,68.5,23.1,59.5,32.3C50.6,41.5,41.2,48.3,31.2,54.2C21.2,60.1,10.6,65.1,-2,68.6C-14.6,72.1,-29.2,74,-43.5,70.5C-57.7,67.1,-71.6,58.2,-75.2,45.6C-78.7,32.9,-72,16.5,-69.8,1.2C-67.7,-14,-70.2,-28,-67.6,-42.3C-65,-56.6,-57.2,-71.1,-45.1,-79.3C-33,-87.5,-16.5,-89.4,-1.8,-86.3C12.9,-83.2,25.8,-75.2,37.8,-66.9Z" transform="translate(100 100)" />
</svg>
